<svg width="510" height="512" viewBox="0 0 510 512" fill="none" xmlns="http://www.w3.org/2000/svg">
<path d="M463.798 248.078C463.798 367.216 367.216 463.797 248.078 463.797C128.939 463.797 32.358 367.216 32.358 248.078C32.358 128.939 128.939 32.3579 248.078 32.3579C367.216 32.3579 463.798 128.939 463.798 248.078Z" fill="#FD4027"/>
<g filter="url(#filter0_d_2286_193)">
<path d="M151.648 439.228C151.762 437.082 151.967 435.081 152.15 433.2C153.037 424.4 153.265 419.578 148.799 414.853C144.334 410.128 139.8 410.391 131.46 411.309C126.186 411.902 119.701 412.601 113.141 410.577C113.002 410.533 112.856 410.497 112.717 410.454C111.444 410.037 110.169 409.522 108.9 408.872C108.849 408.848 108.801 408.817 108.752 408.792C106.129 407.43 103.534 405.533 101.041 402.895C90.9468 392.214 92.1775 379.773 93.0661 370.684C93.9547 361.883 94.1826 357.061 89.7396 352.36C87.3932 349.877 84.9994 348.743 82.0617 348.381C74.3333 372.19 72.1445 397.133 61.368 410.665C61.2875 410.766 61.1985 410.855 61.1157 410.955C59.5742 412.846 57.831 414.47 55.9016 415.865C55.535 416.129 55.1841 416.409 54.8041 416.655C53.8264 417.281 52.7959 417.841 51.7102 418.337C51.2095 418.566 50.6616 418.739 50.1365 418.938C49.1477 419.313 48.1669 419.699 47.0859 419.965C34.7341 423.002 92.9747 466.305 151.648 439.228Z" fill="white"/>
<path d="M101.132 340.303C111.227 350.984 109.996 363.425 109.084 372.489C108.219 381.314 107.968 386.112 112.434 390.837C116.899 395.564 121.435 395.299 129.775 394.383C135.042 393.789 141.518 393.092 148.069 395.108C148.22 395.154 148.375 395.193 148.525 395.241C149.794 395.657 151.065 396.171 152.332 396.817C152.384 396.845 152.435 396.877 152.487 396.905C155.108 398.265 157.702 400.16 160.192 402.797C167.222 410.234 168.769 418.5 168.748 425.893C168.72 427.01 168.665 428.098 168.575 429.135C168.601 429.116 168.626 429.092 168.653 429.075C168.65 429.13 168.65 429.191 168.646 429.246C174.547 425.027 180.381 419.964 186.077 413.937C206.105 392.744 209.591 365.33 202.072 342.715L163.245 301.631C153.959 298.05 143.984 296.696 134.364 297.557C134.247 297.568 134.13 297.578 134.011 297.588C128.845 298.082 123.829 299.272 119.06 301.173C118.829 301.266 118.598 301.359 118.37 301.454C113.947 303.293 109.804 305.757 106.026 308.897C105.556 309.288 105.11 309.705 104.656 310.114C103.698 310.974 102.67 311.721 101.77 312.672C96.6355 318.107 92.612 324.204 89.3376 330.635C89.0466 331.186 88.7352 331.704 88.4506 332.266C88.46 332.269 88.4695 332.275 88.4797 332.276C88.46 332.317 88.4364 332.355 88.4182 332.395C92.7011 333.601 97.0541 335.988 101.132 340.303Z" fill="white"/>
<path d="M275.945 296.833C276.267 296.577 276.418 296.207 276.69 295.915C276.954 295.633 277.194 295.339 277.416 295.021C277.89 294.341 278.248 293.645 278.503 292.868C278.595 292.588 278.669 292.306 278.734 292.015C278.922 291.159 278.977 290.328 278.906 289.454C278.881 289.157 278.844 288.867 278.791 288.575C278.643 287.768 278.382 287.028 278.004 286.286C277.826 285.935 277.625 285.602 277.398 285.28C277.169 284.953 277.07 284.565 276.787 284.267L222.418 226.736C220.455 224.66 217.783 224.079 215.294 224.616C215.014 224.676 214.75 224.772 214.481 224.863C213.693 225.129 212.982 225.507 212.293 226.036C212.002 226.262 211.732 226.514 211.47 226.784C211.173 227.088 210.8 227.264 210.542 227.628L165.81 287.505L219.357 344.164L275.945 296.833Z" fill="white"/>
<path d="M287.036 279.552L290.471 283.196L290.476 283.191L290.565 283.284L443.778 103.492C451.168 94.7648 450.823 81.4488 442.994 73.1644L421.923 50.869C414.092 42.5829 401.508 42.2183 393.261 50.0397L232.056 203.848L223.434 212.066L223.439 212.071L223.345 212.161L287.036 279.552Z" fill="white"/>
</g>
<g filter="url(#filter1_d_2286_193)">
<path d="M471.542 400.142C471.542 437.145 441.545 467.142 404.542 467.142C367.539 467.142 337.542 437.145 337.542 400.142C337.542 363.139 367.539 333.142 404.542 333.142C441.545 333.142 471.542 363.139 471.542 400.142Z" fill="#FFCC00"/>
<path d="M441.283 344.106C421.352 384.302 388.946 417.218 349.5 438.4C341.943 427.553 337 414.722 337 400.5C337 363.497 367.397 333 404.4 333C417.846 333 430.791 337.287 441.283 344.106Z" fill="#FF9C04"/>
</g>
<g filter="url(#filter2_d_2286_193)">
<path fill-rule="evenodd" clip-rule="evenodd" d="M410.445 407.573C422.167 395.851 441.173 395.851 452.896 407.573L496.08 450.757C507.802 462.479 507.802 481.485 496.08 493.208C484.357 504.93 465.351 504.93 453.629 493.208L410.445 450.024C398.722 438.302 398.722 419.296 410.445 407.573Z" fill="#1CBFBF"/>
<path d="M422.927 462.934L410.018 450.024C398.296 438.302 398.296 419.296 410.018 407.573C421.741 395.851 440.747 395.851 452.469 407.573L467.939 423.043C459.527 442.098 443.098 456.82 422.927 462.934Z" fill="#2F671C"/>
</g>
<g filter="url(#filter3_d_2286_193)">
<path d="M179.766 89.8832C179.766 139.524 139.524 179.766 89.8832 179.766C40.2421 179.766 0 139.524 0 89.8832C0 40.2421 40.2421 0 89.8832 0C139.524 0 179.766 40.2421 179.766 89.8832Z" fill="#07ADEB"/>
<path d="M90.0251 179.908C139.666 179.908 179.908 139.666 179.908 90.0252C179.908 74.6144 176.03 60.1095 169.196 47.4332C113.621 69.3235 69.3234 113.621 47.4331 169.196C60.1094 176.03 74.6143 179.908 90.0251 179.908Z" fill="#3621A4"/>
</g>
<defs>
<filter id="filter0_d_2286_193" x="45.4147" y="44.4058" width="408.686" height="413.688" filterUnits="userSpaceOnUse" color-interpolation-filters="sRGB">
<feFlood flood-opacity="0" result="BackgroundImageFix"/>
<feColorMatrix in="SourceAlpha" type="matrix" values="0 0 0 0 0 0 0 0 0 0 0 0 0 0 0 0 0 0 127 0" result="hardAlpha"/>
<feOffset dx="5" dy="10"/>
<feComposite in2="hardAlpha" operator="out"/>
<feColorMatrix type="matrix" values="0 0 0 0 0.0784314 0 0 0 0 0.682353 0 0 0 0 0.360784 0 0 0 1 0"/>
<feBlend mode="normal" in2="BackgroundImageFix" result="effect1_dropShadow_2286_193"/>
<feBlend mode="normal" in="SourceGraphic" in2="effect1_dropShadow_2286_193" result="shape"/>
</filter>
<filter id="filter1_d_2286_193" x="337" y="333" width="139.542" height="144.142" filterUnits="userSpaceOnUse" color-interpolation-filters="sRGB">
<feFlood flood-opacity="0" result="BackgroundImageFix"/>
<feColorMatrix in="SourceAlpha" type="matrix" values="0 0 0 0 0 0 0 0 0 0 0 0 0 0 0 0 0 0 127 0" result="hardAlpha"/>
<feOffset dx="5" dy="10"/>
<feComposite in2="hardAlpha" operator="out"/>
<feColorMatrix type="matrix" values="0 0 0 0 0.937255 0 0 0 0 0.721569 0 0 0 0 0.784314 0 0 0 1 0"/>
<feBlend mode="normal" in2="BackgroundImageFix" result="effect1_dropShadow_2286_193"/>
<feBlend mode="normal" in="SourceGraphic" in2="effect1_dropShadow_2286_193" result="shape"/>
</filter>
<filter id="filter2_d_2286_193" x="401.226" y="398.781" width="108.645" height="113.219" filterUnits="userSpaceOnUse" color-interpolation-filters="sRGB">
<feFlood flood-opacity="0" result="BackgroundImageFix"/>
<feColorMatrix in="SourceAlpha" type="matrix" values="0 0 0 0 0 0 0 0 0 0 0 0 0 0 0 0 0 0 127 0" result="hardAlpha"/>
<feOffset dx="5" dy="10"/>
<feComposite in2="hardAlpha" operator="out"/>
<feColorMatrix type="matrix" values="0 0 0 0 0.686275 0 0 0 0 0.956863 0 0 0 0 0.776471 0 0 0 1 0"/>
<feBlend mode="normal" in2="BackgroundImageFix" result="effect1_dropShadow_2286_193"/>
<feBlend mode="normal" in="SourceGraphic" in2="effect1_dropShadow_2286_193" result="shape"/>
</filter>
<filter id="filter3_d_2286_193" x="0" y="0" width="184.908" height="189.908" filterUnits="userSpaceOnUse" color-interpolation-filters="sRGB">
<feFlood flood-opacity="0" result="BackgroundImageFix"/>
<feColorMatrix in="SourceAlpha" type="matrix" values="0 0 0 0 0 0 0 0 0 0 0 0 0 0 0 0 0 0 127 0" result="hardAlpha"/>
<feOffset dx="5" dy="10"/>
<feComposite in2="hardAlpha" operator="out"/>
<feColorMatrix type="matrix" values="0 0 0 0 0.701961 0 0 0 0 0.14902 0 0 0 0 0.117647 0 0 0 1 0"/>
<feBlend mode="normal" in2="BackgroundImageFix" result="effect1_dropShadow_2286_193"/>
<feBlend mode="normal" in="SourceGraphic" in2="effect1_dropShadow_2286_193" result="shape"/>
</filter>
</defs>
</svg>
