<svg width="512" height="512" viewBox="0 0 512 512" fill="none" xmlns="http://www.w3.org/2000/svg">
<path fill-rule="evenodd" clip-rule="evenodd" d="M256 476C377.503 476 476 377.503 476 256C476 134.497 377.503 36 256 36C134.497 36 36 134.497 36 256C36 377.503 134.497 476 256 476ZM256 512C397.385 512 512 397.385 512 256C512 114.615 397.385 0 256 0C114.615 0 0 114.615 0 256C0 397.385 114.615 512 256 512Z" fill="#007AFF"/>
<path d="M476 256C476 377.503 377.503 476 256 476C134.497 476 36 377.503 36 256C36 134.497 134.497 36 256 36C377.503 36 476 134.497 476 256Z" fill="#34C759"/>
<path d="M170.737 428.096C170.839 426.182 171.021 424.397 171.185 422.72C171.976 414.872 172.179 410.572 168.197 406.358C164.214 402.144 160.171 402.379 152.733 403.198C148.03 403.727 142.247 404.35 136.397 402.545C136.273 402.506 136.143 402.474 136.019 402.435C134.884 402.063 133.747 401.604 132.615 401.024C132.57 401.003 132.527 400.975 132.483 400.953C130.144 399.738 127.83 398.047 125.607 395.694C116.605 386.169 117.702 375.075 118.495 366.969C119.287 359.12 119.49 354.821 115.528 350.628C113.436 348.414 111.301 347.402 108.681 347.079C101.789 368.312 99.8372 390.556 90.2268 402.623C90.1551 402.713 90.0757 402.793 90.0018 402.882C88.6272 404.568 87.0726 406.017 85.3521 407.261C85.0251 407.496 84.7122 407.746 84.3733 407.965C83.5014 408.523 82.5824 409.023 81.6142 409.465C81.1677 409.669 80.6791 409.824 80.2108 410.001C79.3291 410.336 78.4544 410.68 77.4904 410.917C66.4752 413.625 118.413 452.242 170.737 428.096Z" fill="white"/>
<path d="M125.688 339.876C134.69 349.401 133.592 360.496 132.779 368.579C132.007 376.449 131.784 380.727 135.766 384.941C139.749 389.157 143.793 388.92 151.231 388.103C155.928 387.574 161.703 386.952 167.546 388.75C167.68 388.791 167.818 388.826 167.952 388.869C169.083 389.239 170.217 389.698 171.347 390.274C171.393 390.299 171.439 390.328 171.485 390.352C173.822 391.566 176.136 393.255 178.356 395.607C184.625 402.239 186.005 409.611 185.986 416.204C185.962 417.2 185.912 418.17 185.833 419.095C185.856 419.078 185.878 419.057 185.901 419.041C185.899 419.09 185.899 419.144 185.896 419.193C191.158 415.431 196.36 410.916 201.44 405.541C219.301 386.642 222.41 362.194 215.704 342.027L181.079 305.389C172.798 302.195 163.902 300.988 155.323 301.756C155.219 301.765 155.114 301.774 155.009 301.784C150.401 302.224 145.929 303.285 141.675 304.981C141.469 305.063 141.263 305.147 141.06 305.231C137.116 306.871 133.421 309.068 130.052 311.869C129.633 312.217 129.235 312.589 128.83 312.954C127.976 313.721 127.06 314.387 126.257 315.235C121.678 320.082 118.09 325.519 115.17 331.254C114.91 331.745 114.632 332.207 114.379 332.709C114.387 332.712 114.395 332.716 114.405 332.718C114.387 332.754 114.366 332.788 114.35 332.824C118.169 333.899 122.051 336.028 125.688 339.876Z" fill="white"/>
<path d="M281.583 301.11C281.87 300.882 282.005 300.552 282.247 300.292C282.482 300.04 282.697 299.778 282.894 299.494C283.318 298.888 283.636 298.267 283.864 297.575C283.946 297.325 284.012 297.073 284.07 296.813C284.237 296.05 284.287 295.309 284.223 294.529C284.201 294.264 284.168 294.006 284.121 293.746C283.988 293.026 283.756 292.367 283.419 291.704C283.26 291.392 283.081 291.094 282.879 290.808C282.674 290.516 282.586 290.17 282.334 289.904L233.848 238.599C232.098 236.748 229.715 236.23 227.496 236.708C227.245 236.762 227.01 236.848 226.771 236.929C226.068 237.166 225.433 237.503 224.819 237.975C224.559 238.177 224.319 238.401 224.085 238.642C223.82 238.913 223.488 239.07 223.257 239.395L183.367 292.791L231.119 343.319L281.583 301.11Z" fill="white"/>
<path d="M291.474 285.7L294.537 288.949L294.541 288.944L294.62 289.027L431.253 128.692C437.843 120.909 437.536 109.034 430.554 101.646L411.763 81.7638C404.78 74.3744 393.557 74.0493 386.203 81.0242L234.755 225.516L234.759 225.521L234.675 225.601L291.474 285.7Z" fill="white"/>
</svg>
