<svg width="512" height="512" viewBox="0 0 512 512" fill="none" xmlns="http://www.w3.org/2000/svg">
<g clip-path="url(#clip0_2097_3)">
<circle cx="413.02" cy="407.783" r="56.6445" stroke="#5F77AC" stroke-width="16.5"/>
<circle cx="256.812" cy="257.812" r="213.75" fill="#FD4027"/>
<circle cx="100.062" cy="101.062" r="89.0625" fill="#07ADEB"/>
<path fill-rule="evenodd" clip-rule="evenodd" d="M178.382 58.8057C123.357 80.4964 79.4964 124.357 57.8057 179.382C53.2899 176.96 49.0072 174.159 45 171.023C68.2034 114.421 113.421 69.2034 170.023 46C173.159 50.0072 175.96 54.2899 178.382 58.8057Z" fill="#BDDE00"/>
<path d="M161.263 447.217C161.377 445.091 161.579 443.108 161.761 441.245C162.64 432.524 162.866 427.747 158.441 423.065C154.016 418.382 149.523 418.644 141.259 419.553C136.034 420.141 129.608 420.834 123.108 418.828C122.97 418.784 122.826 418.749 122.688 418.706C121.427 418.292 120.163 417.782 118.905 417.138C118.855 417.114 118.808 417.084 118.759 417.059C116.16 415.709 113.589 413.83 111.119 411.216C101.116 400.632 102.336 388.305 103.216 379.299C104.097 370.578 104.323 365.801 99.9202 361.143C97.5952 358.682 95.2233 357.558 92.3123 357.199C84.6545 380.792 82.4857 405.506 71.8076 418.915C71.7279 419.015 71.6396 419.103 71.5576 419.203C70.0303 421.076 68.3029 422.685 66.3912 424.067C66.0279 424.329 65.6802 424.606 65.3037 424.85C64.3349 425.47 63.3138 426.026 62.238 426.517C61.7419 426.743 61.199 426.915 60.6786 427.113C59.699 427.484 58.7271 427.867 57.656 428.13C45.4169 431.14 103.126 474.047 161.263 447.217Z" fill="white"/>
<path d="M111.209 349.195C121.211 359.779 119.991 372.106 119.088 381.088C118.23 389.833 117.982 394.586 122.407 399.268C126.832 403.952 131.326 403.689 139.59 402.782C144.809 402.194 151.226 401.503 157.717 403.5C157.867 403.546 158.02 403.584 158.169 403.632C159.426 404.044 160.686 404.554 161.941 405.194C161.992 405.221 162.043 405.253 162.095 405.281C164.692 406.629 167.262 408.506 169.729 411.119C176.695 418.488 178.228 426.679 178.207 434.005C178.18 435.111 178.124 436.189 178.036 437.216C178.062 437.198 178.086 437.174 178.113 437.157C178.11 437.211 178.11 437.272 178.106 437.326C183.953 433.146 189.734 428.13 195.378 422.157C215.223 401.158 218.678 373.994 211.227 351.585L172.755 310.877C163.553 307.328 153.669 305.987 144.137 306.841C144.021 306.85 143.905 306.86 143.788 306.871C138.668 307.361 133.698 308.539 128.973 310.423C128.744 310.515 128.515 310.608 128.289 310.701C123.906 312.524 119.802 314.965 116.058 318.077C115.592 318.463 115.15 318.877 114.7 319.283C113.751 320.135 112.733 320.875 111.841 321.817C106.753 327.202 102.766 333.243 99.5218 339.616C99.2335 340.162 98.9249 340.675 98.6429 341.232C98.6523 341.236 98.6617 341.241 98.6718 341.242C98.6523 341.283 98.6288 341.32 98.6109 341.36C102.855 342.555 107.168 344.92 111.209 349.195Z" fill="white"/>
<path d="M284.426 306.122C284.744 305.869 284.894 305.502 285.164 305.213C285.425 304.934 285.663 304.642 285.883 304.327C286.353 303.653 286.707 302.964 286.96 302.194C287.051 301.916 287.125 301.637 287.189 301.348C287.375 300.5 287.429 299.677 287.359 298.81C287.335 298.516 287.298 298.229 287.245 297.94C287.098 297.141 286.84 296.407 286.465 295.672C286.289 295.324 286.09 294.994 285.865 294.676C285.638 294.351 285.54 293.966 285.26 293.671L231.387 236.665C229.442 234.608 226.794 234.033 224.328 234.565C224.05 234.624 223.789 234.72 223.523 234.81C222.742 235.073 222.037 235.448 221.354 235.972C221.066 236.196 220.799 236.445 220.539 236.713C220.245 237.015 219.875 237.189 219.619 237.55L175.296 296.879L228.354 353.021L284.426 306.122Z" fill="white"/>
<path d="M295.415 289L298.819 292.61L298.823 292.605L298.912 292.697L450.725 114.547C458.048 105.899 457.707 92.7048 449.949 84.4961L429.071 62.4043C421.311 54.1939 408.842 53.8326 400.67 61.5826L240.937 213.986L232.394 222.129L232.399 222.134L232.306 222.223L295.415 289Z" fill="white"/>
<circle cx="412.75" cy="407.99" r="64.8945" fill="#FFD311"/>
<path fill-rule="evenodd" clip-rule="evenodd" d="M494.144 407.99C494.144 452.943 457.703 489.384 412.75 489.384C367.797 489.384 331.355 452.943 331.355 407.99C331.355 363.037 367.797 326.595 412.75 326.595C457.703 326.595 494.144 363.037 494.144 407.99ZM412.75 472.884C448.59 472.884 477.644 443.83 477.644 407.99C477.644 372.149 448.59 343.095 412.75 343.095C376.91 343.095 347.855 372.149 347.855 407.99C347.855 443.83 376.91 472.884 412.75 472.884Z" fill="#27D547"/>
<line x1="438.729" y1="436.883" x2="480.792" y2="478.947" stroke="#317FEC" stroke-width="59.4866" stroke-linecap="round"/>
<path opacity="0.9" fill-rule="evenodd" clip-rule="evenodd" d="M446.712 352.681C425.731 390.11 395.143 421.427 358.29 443.294C351.689 433.133 347.855 421.009 347.855 407.99C347.855 372.149 376.91 343.095 412.75 343.095C425.201 343.095 436.833 346.602 446.712 352.681Z" fill="#FC610D"/>
<path fill-rule="evenodd" clip-rule="evenodd" d="M430.066 470.706L417.274 457.915C405.659 446.3 405.659 427.467 417.274 415.852C428.89 404.236 447.722 404.236 459.338 415.852L474.666 431.18C466.331 450.061 450.052 464.649 430.066 470.706Z" fill="#2F671C"/>
<path fill-rule="evenodd" clip-rule="evenodd" d="M100.203 190.266C149.391 190.266 189.266 150.391 189.266 101.203C189.266 85.933 185.423 71.5606 178.651 59C123.583 80.6904 79.6904 124.583 58 179.651C70.5606 186.423 84.933 190.266 100.203 190.266Z" fill="#3621A4"/>
<path opacity="0.9" fill-rule="evenodd" clip-rule="evenodd" d="M455.662 338.439C443.261 330.797 428.655 326.389 413.02 326.389C368.067 326.389 331.625 362.83 331.625 407.783C331.625 424.283 336.535 439.637 344.973 452.462C349.948 450.02 354.824 447.407 359.594 444.631C352.361 434.164 348.125 421.468 348.125 407.783C348.125 371.943 377.179 342.889 413.02 342.889C426.016 342.889 438.119 346.709 448.269 353.288C450.901 348.439 453.368 343.487 455.662 338.439Z" fill="#0E4950"/>
<path fill-rule="evenodd" clip-rule="evenodd" d="M488.787 444.762C479.159 462.659 463.618 476.903 444.78 484.882L430.625 470.727C450.612 464.669 466.891 450.081 475.225 431.2L488.787 444.762Z" fill="#2B4468"/>
</g>
<defs>
<clipPath id="clip0_2097_3">
<rect width="512" height="512" fill="white"/>
</clipPath>
</defs>
</svg>
