<svg width="1091" height="118" viewBox="0 0 1091 118" fill="none" xmlns="http://www.w3.org/2000/svg">
<g clip-path="url(#clip0_2267_252)">
<rect width="1091" height="118" fill="white"/>
<path d="M1034.56 110H1030.06V6.5H1034.56V110ZM1025.56 110H1021.06V6.5H1025.56V110ZM1016.56 110H1012.06V6.5H1016.56V110ZM1043.56 87.5H1091.44V92H1043.56V96.5H1091.44V101H1043.56V105.5H1091.44V110H1039.06V6.5H1091.44V11H1043.56V15.5H1091.44V20H1043.56V24.5H1091.44V29H1043.56V47H1068.12V51.5H1043.56V56H1068.12V60.5H1043.56V65H1068.12V69.5H1043.56V87.5Z" fill="black"/>
<path d="M938.188 61H964.312C968.604 61 972.229 59.5625 975.188 56.6875C978.188 53.7708 979.688 49.6667 979.688 44.375C979.688 40.4167 978.125 36.875 975 33.75C971.875 30.5833 968.312 29 964.312 29H925.688V110H921.188V24.5H964.312C969.562 24.5 974.188 26.5208 978.188 30.5625C982.188 34.6042 984.188 39.2083 984.188 44.375C984.188 50.75 982.25 55.875 978.375 59.75C974.5 63.5833 969.812 65.5 964.312 65.5H938.188V61ZM938.188 70H964.312C968.646 70 972.646 68.9583 976.312 66.875C980.021 64.75 983 61.7083 985.25 57.75C987.542 53.7917 988.688 49.3333 988.688 44.375C988.688 37.9583 986.229 32.2917 981.312 27.375C976.438 22.4583 970.771 20 964.312 20H916.688V110H912.188V15.5H964.312C969.354 15.5 974.104 16.8333 978.562 19.5C983.021 22.1667 986.562 25.7292 989.188 30.1875C991.854 34.6458 993.188 39.375 993.188 44.375C993.188 50.0417 991.854 55.2083 989.188 59.875C986.521 64.5 982.979 68.1042 978.562 70.6875C974.188 73.2292 969.438 74.5 964.312 74.5H938.188V70ZM938.188 79H964.312C968.771 79 973.042 78.125 977.125 76.375C981.208 74.5833 984.75 72.1875 987.75 69.1875C990.792 66.1458 993.208 62.4792 995 58.1875C996.792 53.8542 997.688 49.25 997.688 44.375C997.688 38.5417 996.167 33.0625 993.125 27.9375C990.083 22.7708 985.979 18.6667 980.812 15.625C975.688 12.5417 970.188 11 964.312 11H907.688V110H903.188V6.5H964.312C970.979 6.5 977.229 8.25 983.062 11.75C988.896 15.2083 993.542 19.8542 997 25.6875C1000.46 31.5208 1002.19 37.75 1002.19 44.375C1002.19 50.2917 1001.17 55.75 999.125 60.75C997.083 65.7083 994.333 69.8333 990.875 73.125C987.417 76.4167 983.396 78.9792 978.812 80.8125C974.229 82.6042 969.396 83.5 964.312 83.5H938.188V79ZM934.688 110H930.188V33.5H964.312C967.271 33.5 969.812 34.5833 971.938 36.75C974.104 38.9167 975.188 41.4583 975.188 44.375C975.188 52.4583 971.562 56.5 964.312 56.5H938.188V52H964.312C966.312 52 967.875 51.4375 969 50.3125C970.125 49.1875 970.688 47.2083 970.688 44.375C970.688 42.5417 970.062 41.0208 968.812 39.8125C967.604 38.6042 966.104 38 964.312 38H934.688V110Z" fill="black"/>
<path d="M820.125 40.75C815.292 45.5833 812.875 51.4167 812.875 58.25C812.875 65.0833 815.292 70.9167 820.125 75.75C824.958 80.5833 830.792 83 837.625 83C844.458 83 850.292 80.5833 855.125 75.75C859.958 70.9167 862.375 65.0833 862.375 58.25C862.375 51.4167 859.958 45.5833 855.125 40.75C850.292 35.9167 844.458 33.5 837.625 33.5C830.792 33.5 824.958 35.9167 820.125 40.75ZM810.688 69.625C809.146 66 808.375 62.2083 808.375 58.25C808.375 54.2917 809.146 50.5208 810.688 46.9375C812.229 43.3125 814.312 40.1875 816.938 37.5625C819.562 34.9375 822.667 32.8542 826.25 31.3125C829.875 29.7708 833.667 29 837.625 29C841.583 29 845.354 29.7708 848.938 31.3125C852.562 32.8542 855.688 34.9375 858.312 37.5625C860.938 40.1875 863.021 43.3125 864.562 46.9375C866.104 50.5208 866.875 54.2917 866.875 58.25C866.875 62.2083 866.104 66 864.562 69.625C863.021 73.2083 860.938 76.3125 858.312 78.9375C855.688 81.5625 852.562 83.6458 848.938 85.1875C845.354 86.7292 841.583 87.5 837.625 87.5C833.667 87.5 829.875 86.7292 826.25 85.1875C822.667 83.6458 819.562 81.5625 816.938 78.9375C814.312 76.3125 812.229 73.2083 810.688 69.625ZM808.375 41.3125C805.375 46.4792 803.875 52.125 803.875 58.25C803.875 64.375 805.375 70.0208 808.375 75.1875C811.417 80.3542 815.521 84.4583 820.688 87.5C825.854 90.5 831.5 92 837.625 92C843.75 92 849.396 90.5 854.562 87.5C859.729 84.4583 863.812 80.3542 866.812 75.1875C869.854 70.0208 871.375 64.375 871.375 58.25C871.375 52.125 869.854 46.4792 866.812 41.3125C863.812 36.1458 859.729 32.0625 854.562 29.0625C849.396 26.0208 843.75 24.5 837.625 24.5C831.5 24.5 825.854 26.0208 820.688 29.0625C815.521 32.0625 811.417 36.1458 808.375 41.3125ZM804.5 77.4375C801.083 71.5625 799.375 65.1667 799.375 58.25C799.375 51.3333 801.083 44.9375 804.5 39.0625C807.917 33.1875 812.562 28.5417 818.438 25.125C824.312 21.7083 830.708 20 837.625 20C844.542 20 850.938 21.7083 856.812 25.125C862.688 28.5417 867.333 33.1875 870.75 39.0625C874.167 44.9375 875.875 51.3333 875.875 58.25C875.875 65.1667 874.167 71.5625 870.75 77.4375C867.333 83.3125 862.688 87.9583 856.812 91.375C850.938 94.7917 844.542 96.5 837.625 96.5C830.708 96.5 824.312 94.7917 818.438 91.375C812.562 87.9583 807.917 83.3125 804.5 77.4375ZM798.25 41.625C796 46.9167 794.875 52.4583 794.875 58.25C794.875 64.0417 796 69.5833 798.25 74.875C800.5 80.1667 803.521 84.7292 807.312 88.5625C811.146 92.3542 815.708 95.375 821 97.625C826.292 99.875 831.833 101 837.625 101C843.417 101 848.958 99.875 854.25 97.625C859.542 95.375 864.083 92.3542 867.875 88.5625C871.708 84.7292 874.75 80.1667 877 74.875C879.25 69.5833 880.375 64.0417 880.375 58.25C880.375 52.4583 879.25 46.9167 877 41.625C874.75 36.3333 871.708 31.7917 867.875 28C864.083 24.1667 859.542 21.125 854.25 18.875C848.958 16.625 843.417 15.5 837.625 15.5C831.833 15.5 826.292 16.625 821 18.875C815.708 21.125 811.146 24.1667 807.312 28C803.521 31.7917 800.5 36.3333 798.25 41.625ZM796.688 81.9375C792.479 74.6875 790.375 66.7917 790.375 58.25C790.375 49.7083 792.479 41.8125 796.688 34.5625C800.938 27.3125 806.688 21.5833 813.938 17.375C821.188 13.125 829.083 11 837.625 11C846.167 11 854.062 13.125 861.312 17.375C868.562 21.5833 874.292 27.3125 878.5 34.5625C882.75 41.8125 884.875 49.7083 884.875 58.25C884.875 66.7917 882.75 74.6875 878.5 81.9375C874.292 89.1875 868.562 94.9375 861.312 99.1875C854.062 103.396 846.167 105.5 837.625 105.5C829.083 105.5 821.188 103.396 813.938 99.1875C806.688 94.9375 800.938 89.1875 796.688 81.9375ZM789.938 38.1875C787.229 44.5625 785.875 51.25 785.875 58.25C785.875 65.25 787.229 71.9583 789.938 78.375C792.688 84.75 796.375 90.25 801 94.875C805.625 99.5 811.125 103.188 817.5 105.938C823.917 108.646 830.625 110 837.625 110C844.625 110 851.312 108.646 857.688 105.938C864.104 103.188 869.625 99.5 874.25 94.875C878.875 90.25 882.542 84.75 885.25 78.375C888 71.9583 889.375 65.25 889.375 58.25C889.375 51.25 888 44.5625 885.25 38.1875C882.542 31.7708 878.875 26.25 874.25 21.625C869.625 17 864.104 13.3333 857.688 10.625C851.312 7.875 844.625 6.5 837.625 6.5C830.625 6.5 823.917 7.875 817.5 10.625C811.125 13.3333 805.625 17 801 21.625C796.375 26.25 792.688 31.7708 789.938 38.1875ZM785.812 80.125C782.854 73.1667 781.375 65.875 781.375 58.25C781.375 50.625 782.854 43.3542 785.812 36.4375C788.812 29.4792 792.812 23.5 797.812 18.5C802.854 13.4583 808.833 9.45833 815.75 6.5C822.708 3.5 830 2 837.625 2C845.25 2 852.521 3.5 859.438 6.5C866.396 9.45833 872.375 13.4583 877.375 18.5C882.417 23.5 886.417 29.4792 889.375 36.4375C892.375 43.3542 893.875 50.625 893.875 58.25C893.875 65.875 892.375 73.1667 889.375 80.125C886.417 87.0417 882.417 93.0208 877.375 98.0625C872.375 103.062 866.396 107.042 859.438 110C852.521 113 845.25 114.5 837.625 114.5C830 114.5 822.708 113 815.75 110C808.833 107.042 802.854 103.062 797.812 98.0625C792.812 93.0208 788.812 87.0417 785.812 80.125Z" fill="black"/>
<path d="M752.688 41.875L749 44.3125C746.75 40.9792 743.812 38.3542 740.188 36.4375C736.604 34.4792 732.708 33.5 728.5 33.5C721.667 33.5 715.833 35.9167 711 40.75C706.167 45.5833 703.75 51.4167 703.75 58.25C703.75 65.0833 706.167 70.9167 711 75.75C715.833 80.5833 721.667 83 728.5 83C732.708 83 736.604 82.0208 740.188 80.0625C743.812 78.1042 746.75 75.4583 749 72.125L752.625 74.75C749.958 78.6667 746.5 81.7708 742.25 84.0625C738 86.3542 733.417 87.5 728.5 87.5C724.542 87.5 720.75 86.7292 717.125 85.1875C713.542 83.6458 710.438 81.5625 707.812 78.9375C705.188 76.3125 703.104 73.2083 701.562 69.625C700.021 66 699.25 62.2083 699.25 58.25C699.25 54.2917 700.021 50.5208 701.562 46.9375C703.104 43.3125 705.188 40.1875 707.812 37.5625C710.438 34.9375 713.542 32.8542 717.125 31.3125C720.75 29.7708 724.542 29 728.5 29C733.458 29 738.062 30.1667 742.312 32.5C746.562 34.7917 750.021 37.9167 752.688 41.875ZM760.125 36.75L756.375 39.1875C753.292 34.6875 749.292 31.125 744.375 28.5C739.5 25.8333 734.208 24.5 728.5 24.5C722.375 24.5 716.729 26.0208 711.562 29.0625C706.396 32.0625 702.292 36.1458 699.25 41.3125C696.25 46.4792 694.75 52.125 694.75 58.25C694.75 64.375 696.25 70.0208 699.25 75.1875C702.292 80.3542 706.396 84.4583 711.562 87.5C716.729 90.5 722.375 92 728.5 92C734.208 92 739.521 90.6667 744.438 88C749.354 85.3333 753.354 81.7292 756.438 77.1875L760.125 79.75C756.625 84.9167 752.083 89 746.5 92C740.958 95 734.958 96.5 728.5 96.5C721.583 96.5 715.188 94.7917 709.312 91.375C703.438 87.9583 698.792 83.3125 695.375 77.4375C691.958 71.5625 690.25 65.1667 690.25 58.25C690.25 51.3333 691.958 44.9375 695.375 39.0625C698.792 33.1875 703.438 28.5417 709.312 25.125C715.188 21.7083 721.583 20 728.5 20C734.958 20 740.958 21.5 746.5 24.5C752.083 27.5 756.625 31.5833 760.125 36.75ZM767.625 31.75L763.875 34.1875C759.958 28.4375 754.875 23.8958 748.625 20.5625C742.417 17.1875 735.708 15.5 728.5 15.5C722.708 15.5 717.167 16.625 711.875 18.875C706.583 21.125 702.021 24.1667 698.188 28C694.396 31.7917 691.375 36.3333 689.125 41.625C686.875 46.9167 685.75 52.4583 685.75 58.25C685.75 64.0417 686.875 69.5833 689.125 74.875C691.375 80.1667 694.396 84.7292 698.188 88.5625C702.021 92.3542 706.583 95.375 711.875 97.625C717.167 99.875 722.708 101 728.5 101C735.75 101 742.479 99.3125 748.688 95.9375C754.896 92.5625 759.958 88 763.875 82.25L767.5 84.9375C763.167 91.2708 757.562 96.2917 750.688 100C743.854 103.667 736.458 105.5 728.5 105.5C719.958 105.5 712.062 103.396 704.812 99.1875C697.562 94.9375 691.812 89.1875 687.562 81.9375C683.354 74.6875 681.25 66.7917 681.25 58.25C681.25 49.7083 683.354 41.8125 687.562 34.5625C691.812 27.3125 697.562 21.5833 704.812 17.375C712.062 13.125 719.958 11 728.5 11C736.5 11 743.938 12.875 750.812 16.625C757.688 20.3333 763.292 25.375 767.625 31.75ZM775 26.625L771.25 29.0625C766.5 22.1042 760.354 16.6042 752.812 12.5625C745.312 8.52083 737.208 6.5 728.5 6.5C721.5 6.5 714.792 7.875 708.375 10.625C702 13.3333 696.5 17 691.875 21.625C687.25 26.25 683.562 31.7708 680.812 38.1875C678.104 44.5625 676.75 51.25 676.75 58.25C676.75 65.25 678.104 71.9583 680.812 78.375C683.562 84.75 687.25 90.25 691.875 94.875C696.5 99.5 702 103.188 708.375 105.938C714.792 108.646 721.5 110 728.5 110C737.208 110 745.333 107.958 752.875 103.875C760.417 99.7917 766.562 94.2708 771.312 87.3125L774.938 90.0625C769.771 97.5625 763.104 103.521 754.938 107.938C746.771 112.312 737.958 114.5 728.5 114.5C720.875 114.5 713.583 113 706.625 110C699.708 107.042 693.729 103.062 688.688 98.0625C683.688 93.0208 679.688 87.0417 676.688 80.125C673.729 73.1667 672.25 65.875 672.25 58.25C672.25 50.625 673.729 43.3542 676.688 36.4375C679.688 29.4792 683.688 23.5 688.688 18.5C693.729 13.4583 699.708 9.45833 706.625 6.5C713.583 3.5 720.875 2 728.5 2C738 2 746.833 4.20833 755 8.625C763.167 13.0417 769.833 19.0417 775 26.625Z" fill="black"/>
<path d="M629 47H621.438C618.229 47 615.917 46.1875 614.5 44.5625C613.083 42.8958 612.375 40.7083 612.375 38C612.375 32 616.854 29 625.812 29C634.229 29 640.562 30.25 644.812 32.75L641.188 35.5C638.271 34.1667 633.146 33.5 625.812 33.5C622.229 33.5 619.812 33.8958 618.562 34.6875C617.354 35.4792 616.75 36.5833 616.75 38C616.75 39.4167 617.083 40.5208 617.75 41.3125C618.417 42.1042 619.646 42.5 621.438 42.5H629.188C634.812 42.5 639.875 43.4583 644.375 45.375C648.917 47.2917 652.646 49.9167 655.562 53.25C658.479 56.5417 660.708 60.3542 662.25 64.6875C663.792 68.9792 664.562 73.5833 664.562 78.5C664.562 82.5 664 86.2917 662.875 89.875C661.75 93.4583 660.042 96.75 657.75 99.75C655.5 102.75 652.771 105.354 649.562 107.562C646.396 109.729 642.604 111.417 638.188 112.625C633.812 113.875 629.062 114.5 623.938 114.5C615.896 114.5 608.354 113.271 601.312 110.812C594.312 108.396 588.479 105 583.812 100.625L587.438 97.9375C591.688 101.771 597 104.75 603.375 106.875C609.792 108.958 616.646 110 623.938 110C629.646 110 634.792 109.188 639.375 107.562C644 105.896 647.792 103.625 650.75 100.75C653.75 97.875 656.042 94.5417 657.625 90.75C659.25 86.9583 660.062 82.875 660.062 78.5C660.062 72.7083 658.896 67.4792 656.562 62.8125C654.229 58.1042 650.667 54.2917 645.875 51.375C641.125 48.4583 635.5 47 629 47ZM621.438 51.5H628.562C637.021 51.5 643.625 54.0833 648.375 59.25C653.167 64.4167 655.562 70.8333 655.562 78.5C655.562 86.2917 652.792 92.75 647.25 97.875C641.708 102.958 633.938 105.5 623.938 105.5C617.271 105.5 611.042 104.583 605.25 102.75C599.458 100.917 594.646 98.3333 590.812 95L594.312 92.1875C597.729 94.9792 602.021 97.1458 607.188 98.6875C612.396 100.229 617.979 101 623.938 101C632.729 101 639.438 98.8958 644.062 94.6875C648.729 90.4792 651.062 85.0833 651.062 78.5C651.062 72 649.104 66.625 645.188 62.375C641.312 58.125 635.75 56 628.5 56H621.438C615.354 56 610.792 54.3333 607.75 51C604.708 47.6667 603.188 43.3333 603.188 38C603.188 32.6667 605.062 28.3333 608.812 25C612.604 21.6667 618.271 20 625.812 20C631.104 20 636.021 20.625 640.562 21.875C645.104 23.0833 648.854 24.8333 651.812 27.125L648.25 29.875C643.042 26.2917 635.562 24.5 625.812 24.5C619.521 24.5 614.917 25.75 612 28.25C609.125 30.7083 607.688 33.9583 607.688 38C607.688 42.0833 608.75 45.3542 610.875 47.8125C613.042 50.2708 616.562 51.5 621.438 51.5ZM621.438 60.5H628.312C634.396 60.5 638.958 62.1875 642 65.5625C645.042 68.9375 646.562 73.25 646.562 78.5C646.562 83.8333 644.667 88.1667 640.875 91.5C637.125 94.8333 631.479 96.5 623.938 96.5C618.646 96.5 613.708 95.8958 609.125 94.6875C604.583 93.4375 600.833 91.6667 597.875 89.375L601.438 86.625C606.646 90.2083 614.146 92 623.938 92C630.229 92 634.812 90.7708 637.688 88.3125C640.604 85.8125 642.062 82.5417 642.062 78.5C642.062 74.4583 640.979 71.2083 638.812 68.75C636.646 66.25 633.125 65 628.25 65H621.438C612.896 65 606.208 62.4583 601.375 57.375C596.583 52.25 594.188 45.7917 594.188 38C594.188 30.2083 596.958 23.7708 602.5 18.6875C608.042 13.5625 615.812 11 625.812 11C632.479 11 638.688 11.9167 644.438 13.75C650.229 15.5833 655.042 18.1667 658.875 21.5L655.375 24.3125C651.958 21.5208 647.667 19.3542 642.5 17.8125C637.333 16.2708 631.771 15.5 625.812 15.5C617.021 15.5 610.292 17.6042 605.625 21.8125C601 26.0208 598.688 31.4167 598.688 38C598.688 44.5417 600.646 49.9375 604.562 54.1875C608.479 58.3958 614.104 60.5 621.438 60.5ZM621.438 69.5H628.312C631.521 69.5 633.833 70.3333 635.25 72C636.667 73.6667 637.375 75.8333 637.375 78.5C637.375 84.5 632.896 87.5 623.938 87.5C615.479 87.5 609.125 86.25 604.875 83.75L608.5 81C611.417 82.3333 616.562 83 623.938 83C627.521 83 629.917 82.6042 631.125 81.8125C632.375 81.0208 633 79.9167 633 78.5C633 77.125 632.646 76.0417 631.938 75.25C631.271 74.4167 630.021 74 628.188 74H621.438C615.688 74 610.479 73.0625 605.812 71.1875C601.188 69.3125 597.375 66.7292 594.375 63.4375C591.417 60.1458 589.146 56.3333 587.562 52C585.979 47.6667 585.188 43 585.188 38C585.188 34 585.75 30.2083 586.875 26.625C588 23.0417 589.688 19.75 591.938 16.75C594.229 13.75 596.958 11.1667 600.125 9C603.333 6.79167 607.125 5.08333 611.5 3.875C615.917 2.625 620.688 2 625.812 2C633.854 2 641.375 3.22917 648.375 5.6875C655.375 8.10417 661.208 11.5 665.875 15.875L662.25 18.5625C658 14.7292 652.688 11.7708 646.312 9.6875C639.938 7.5625 633.104 6.5 625.812 6.5C620.104 6.5 614.938 7.33333 610.312 9C605.729 10.625 601.938 12.875 598.938 15.75C595.979 18.625 593.688 21.9583 592.062 25.75C590.479 29.5417 589.688 33.625 589.688 38C589.688 43.875 590.875 49.1667 593.25 53.875C595.625 58.5833 599.25 62.375 604.125 65.25C609 68.0833 614.771 69.5 621.438 69.5Z" fill="black"/>
<path d="M505.312 110H500.812V6.5H505.312V110ZM496.312 110H491.812V6.5H496.312V110ZM487.312 110H482.812V6.5H487.312V110ZM514.312 87.5H562.188V92H514.312V96.5H562.188V101H514.312V105.5H562.188V110H509.812V6.5H562.188V11H514.312V15.5H562.188V20H514.312V24.5H562.188V29H514.312V47H538.875V51.5H514.312V56H538.875V60.5H514.312V65H538.875V69.5H514.312V87.5Z" fill="black"/>
<path d="M405.312 6.5H409.812V110H405.312V6.5ZM432.312 6.5H436.812V87.5H472.812V92H436.812V96.5H472.812V101H436.812V105.5H472.812V110H432.312V6.5ZM423.312 6.5H427.812V110H423.312V6.5ZM414.312 6.5H418.812V110H414.312V6.5Z" fill="black"/>
<path d="M318.812 83V33.5C318.812 33.5 329.042 33.5 349.5 33.5C354.458 33.5 358.708 35.9375 362.25 40.8125C365.833 45.6458 367.625 51.4583 367.625 58.25C367.625 65.0833 365.833 70.9167 362.25 75.75C358.708 80.5833 354.458 83 349.5 83H318.812ZM323.312 78.5H349.5C353.208 78.5 356.375 76.5208 359 72.5625C361.667 68.6042 363 63.8333 363 58.25C363 52.625 361.667 47.8542 359 43.9375C356.375 39.9792 353.208 38 349.5 38H323.312V78.5ZM314.312 87.5H349.5C355.708 87.5 361.042 84.6458 365.5 78.9375C370 73.1875 372.25 66.2917 372.25 58.25C372.25 52.9583 371.208 48.0625 369.125 43.5625C367.083 39.0625 364.312 35.5208 360.812 32.9375C357.354 30.3125 353.583 29 349.5 29H314.312V87.5ZM309.812 92V24.5H349.5C354.375 24.5 358.917 26 363.125 29C367.333 32 370.667 36.1042 373.125 41.3125C375.625 46.4792 376.875 52.125 376.875 58.25C376.875 64.3333 375.625 69.9792 373.125 75.1875C370.667 80.3958 367.333 84.5 363.125 87.5C358.917 90.5 354.375 92 349.5 92H309.812ZM305.312 96.5H349.5C355.208 96.5 360.5 94.7917 365.375 91.375C370.292 87.9583 374.208 83.3125 377.125 77.4375C380.042 71.5625 381.5 65.1667 381.5 58.25C381.5 51.375 380.042 45 377.125 39.125C374.208 33.2083 370.292 28.5417 365.375 25.125C360.458 21.7083 355.167 20 349.5 20H305.312V96.5ZM300.812 101V15.5H349.5C356 15.5 362.062 17.4167 367.688 21.25C373.312 25.0417 377.792 30.2292 381.125 36.8125C384.458 43.3958 386.125 50.5417 386.125 58.25C386.125 65.9583 384.458 73.1042 381.125 79.6875C377.792 86.2708 373.312 91.4792 367.688 95.3125C362.062 99.1042 356 101 349.5 101H300.812ZM296.312 105.5H349.5C354.958 105.5 360.229 104.25 365.312 101.75C370.396 99.25 374.792 95.8958 378.5 91.6875C382.208 87.4792 385.167 82.4583 387.375 76.625C389.625 70.75 390.75 64.625 390.75 58.25C390.75 51.875 389.625 45.7708 387.375 39.9375C385.167 34.1042 382.208 29.0833 378.5 24.875C374.792 20.625 370.396 17.25 365.312 14.75C360.229 12.25 354.958 11 349.5 11H296.312V105.5ZM349.5 110H291.812V6.5H349.5C357.625 6.5 365.208 8.8125 372.25 13.4375C379.292 18.0625 384.896 24.3542 389.062 32.3125C393.271 40.2708 395.375 48.9167 395.375 58.25C395.375 65.25 394.125 71.9583 391.625 78.375C389.167 84.75 385.875 90.25 381.75 94.875C377.625 99.5 372.729 103.188 367.062 105.938C361.438 108.646 355.583 110 349.5 110Z" fill="black"/>
<path d="M27 83.5V34C27 34 37.2292 34 57.6875 34C62.6458 34 66.8958 36.4375 70.4375 41.3125C74.0208 46.1458 75.8125 51.9583 75.8125 58.75C75.8125 65.5833 74.0208 71.4167 70.4375 76.25C66.8958 81.0833 62.6458 83.5 57.6875 83.5H27ZM31.5 79H57.6875C61.3958 79 64.5625 77.0208 67.1875 73.0625C69.8542 69.1042 71.1875 64.3333 71.1875 58.75C71.1875 53.125 69.8542 48.3542 67.1875 44.4375C64.5625 40.4792 61.3958 38.5 57.6875 38.5H31.5V79ZM22.5 88H57.6875C63.8958 88 69.2292 85.1458 73.6875 79.4375C78.1875 73.6875 80.4375 66.7917 80.4375 58.75C80.4375 53.4583 79.3958 48.5625 77.3125 44.0625C75.2708 39.5625 72.5 36.0208 69 33.4375C65.5417 30.8125 61.7708 29.5 57.6875 29.5H22.5V88ZM18 92.5V25H57.6875C62.5625 25 67.1042 26.5 71.3125 29.5C75.5208 32.5 78.8542 36.6042 81.3125 41.8125C83.8125 46.9792 85.0625 52.625 85.0625 58.75C85.0625 64.8333 83.8125 70.4792 81.3125 75.6875C78.8542 80.8958 75.5208 85 71.3125 88C67.1042 91 62.5625 92.5 57.6875 92.5H18ZM13.5 97H57.6875C63.3958 97 68.6875 95.2917 73.5625 91.875C78.4792 88.4583 82.3958 83.8125 85.3125 77.9375C88.2292 72.0625 89.6875 65.6667 89.6875 58.75C89.6875 51.875 88.2292 45.5 85.3125 39.625C82.3958 33.7083 78.4792 29.0417 73.5625 25.625C68.6458 22.2083 63.3542 20.5 57.6875 20.5H13.5V97ZM9 101.5V16H57.6875C64.1875 16 70.25 17.9167 75.875 21.75C81.5 25.5417 85.9792 30.7292 89.3125 37.3125C92.6458 43.8958 94.3125 51.0417 94.3125 58.75C94.3125 66.4583 92.6458 73.6042 89.3125 80.1875C85.9792 86.7708 81.5 91.9792 75.875 95.8125C70.25 99.6042 64.1875 101.5 57.6875 101.5H9ZM4.5 106H57.6875C63.1458 106 68.4167 104.75 73.5 102.25C78.5833 99.75 82.9792 96.3958 86.6875 92.1875C90.3958 87.9792 93.3542 82.9583 95.5625 77.125C97.8125 71.25 98.9375 65.125 98.9375 58.75C98.9375 52.375 97.8125 46.2708 95.5625 40.4375C93.3542 34.6042 90.3958 29.5833 86.6875 25.375C82.9792 21.125 78.5833 17.75 73.5 15.25C68.4167 12.75 63.1458 11.5 57.6875 11.5H4.5V106ZM57.6875 110.5H0V7H57.6875C65.8125 7 73.3958 9.3125 80.4375 13.9375C87.4792 18.5625 93.0833 24.8542 97.25 32.8125C101.458 40.7708 103.562 49.4167 103.562 58.75C103.562 65.75 102.312 72.4583 99.8125 78.875C97.3542 85.25 94.0625 90.75 89.9375 95.375C85.8125 100 80.9167 103.688 75.25 106.438C69.625 109.146 63.7708 110.5 57.6875 110.5Z" fill="black"/>
<path d="M225 59C225 91.5848 198.585 118 166 118C133.415 118 107 91.5848 107 59C107 26.4152 133.415 0 166 0C198.585 0 225 26.4152 225 59Z" fill="#2F80EC"/>
<path d="M284 59C284 91.5848 257.585 118 225 118C192.415 118 166 91.5848 166 59C166 26.4152 192.415 0 225 0C257.585 0 284 26.4152 284 59Z" fill="#FFD50D"/>
<path d="M195.5 110.214C213.135 100.012 225 80.9452 225 59.1069C225 37.2686 213.135 18.2014 195.5 8C177.865 18.2014 166 37.2686 166 59.1069C166 80.9452 177.865 100.012 195.5 110.214Z" fill="#2F6A0C"/>
</g>
<defs>
<clipPath id="clip0_2267_252">
<rect width="1091" height="118" fill="white"/>
</clipPath>
</defs>
</svg>
